<svg width="26" height="16" viewBox="0 0 26 16" fill="none" xmlns="http://www.w3.org/2000/svg">
<rect width="26" height="16" fill="#1E1E1E"/>
<g id="Movie Database App" clip-path="url(#clip0_7_17)">
<rect width="1500" height="2000" transform="translate(-235 -197)" fill="white"/>
<rect id="bg" x="-235" y="-197" width="1500" height="2000" fill="#222B30"/>
<rect id="Rectangle 20" x="-235" y="-97" width="300" height="1900" fill="#191D20"/>
<g id="NAV">
<g id="navlink">
<rect id="Rectangle 22" x="-235" y="-27" width="300" height="70" fill="#222B30"/>
<path id="Arrow 1" d="M25.7071 8.70711C26.0976 8.31658 26.0976 7.68342 25.7071 7.29289L19.3431 0.928932C18.9526 0.538408 18.3195 0.538408 17.9289 0.928932C17.5384 1.31946 17.5384 1.95262 17.9289 2.34315L23.5858 8L17.9289 13.6569C17.5384 14.0474 17.5384 14.6805 17.9289 15.0711C18.3195 15.4616 18.9526 15.4616 19.3431 15.0711L25.7071 8.70711ZM0 9H25V7H0V9Z" fill="#DADBDD"/>
</g>
</g>
</g>
<defs>
<clipPath id="clip0_7_17">
<rect width="1500" height="2000" fill="white" transform="translate(-235 -197)"/>
</clipPath>
</defs>
</svg>
